$MeshFormat
4.1 0 8
$EndMeshFormat
$Entities
8 12 6 1
1 0 0 1 0 
2 0 0 0 0 
3 0 1 1 0 
4 0 1 0 0 
5 1 0 1 0 
6 1 0 0 0 
7 1 1 1 0 
8 1 1 0 0 
1 -1e-07 -1e-07 -9.999999994736442e-08 1e-07 1e-07 1.0000001 0 2 2 -1 
2 -1e-07 -9.999999994736442e-08 0.9999999000000001 1e-07 1.0000001 1.0000001 0 2 1 -3 
3 -1e-07 0.9999999000000001 -9.999999994736442e-08 1e-07 1.0000001 1.0000001 0 2 4 -3 
4 -1e-07 -9.999999994736442e-08 -1e-07 1e-07 1.0000001 1e-07 0 2 2 -4 
5 0.9999999000000001 -1e-07 -9.999999994736442e-08 1.0000001 1e-07 1.0000001 0 2 6 -5 
6 0.9999999000000001 -9.999999994736442e-08 0.9999999000000001 1.0000001 1.0000001 1.0000001 0 2 5 -7 
7 0.9999999000000001 0.9999999000000001 -9.999999994736442e-08 1.0000001 1.0000001 1.0000001 0 2 8 -7 
8 0.9999999000000001 -9.999999994736442e-08 -1e-07 1.0000001 1.0000001 1e-07 0 2 6 -8 
9 -9.999999994736442e-08 -1e-07 -1e-07 1.0000001 1e-07 1e-07 0 2 2 -6 
10 -9.999999994736442e-08 -1e-07 0.9999999000000001 1.0000001 1e-07 1.0000001 0 2 1 -5 
11 -9.999999994736442e-08 0.9999999000000001 -1e-07 1.0000001 1.0000001 1e-07 0 2 4 -8 
12 -9.999999994736442e-08 0.9999999000000001 0.9999999000000001 1.0000001 1.0000001 1.0000001 0 2 3 -7 
1 -1e-07 -9.999999994736442e-08 -9.999999994736442e-08 1e-07 1.0000001 1.0000001 0 4 -1 4 3 -2 
2 0.9999999000000001 -9.999999994736442e-08 -9.999999994736442e-08 1.0000001 1.0000001 1.0000001 0 4 -5 8 7 -6 
3 -9.999999994736442e-08 -1e-07 -9.999999994736442e-08 1.0000001 1e-07 1.0000001 0 4 -9 1 10 -5 
4 -9.999999994736442e-08 0.9999999000000001 -9.999999994736442e-08 1.0000001 1.0000001 1.0000001 0 4 -11 3 12 -7 
5 -9.999999994736442e-08 -9.999999994736442e-08 -1e-07 1.0000001 1.0000001 1e-07 0 4 -4 9 8 -11 
6 -9.999999994736442e-08 -9.999999994736442e-08 0.9999999000000001 1.0000001 1.0000001 1.0000001 0 4 -2 10 6 -12 
1 -9.999999994736442e-08 -9.999999994736442e-08 -9.999999994736442e-08 1.0000001 1.0000001 1.0000001 0 6 -1 2 -3 4 -5 6 
$EndEntities
$Nodes
27 81 1 81
0 1 0 1
1
0 0 1
0 2 0 1
2
0 0 0
0 3 0 1
3
0 1 1
0 4 0 1
4
0 1 0
0 5 0 1
5
1 0 1
0 6 0 1
6
1 0 0
0 7 0 1
7
1 1 1
0 8 0 1
8
1 1 0
1 1 0 3
9
10
11
0 0 0.5
0 0 0.25
0 0 0.75
1 2 0 3
12
13
14
0 0.5 1
0 0.25 1
0 0.75 1
1 3 0 3
15
16
17
0 1 0.5
0 1 0.25
0 1 0.75
1 4 0 3
18
19
20
0 0.5 0
0 0.25 0
0 0.75 0
1 5 0 3
21
22
23
1 0 0.5
1 0 0.25
1 0 0.75
1 6 0 3
24
25
26
1 0.5 1
1 0.25 1
1 0.75 1
1 7 0 3
27
28
29
1 1 0.5
1 1 0.25
1 1 0.75
1 8 0 3
30
31
32
1 0.5 0
1 0.25 0
1 0.75 0
1 9 0 3
33
34
35
0.5 0 0
0.25 0 0
0.75 0 0
1 10 0 3
36
37
38
0.5 0 1
0.25 0 1
0.75 0 1
1 11 0 3
39
40
41
0.5 1 0
0.25 1 0
0.75 1 0
1 12 0 3
42
43
44
0.5 1 1
0.25 1 1
0.75 1 1
2 1 0 5
45
46
47
48
49
0 0.5 0.5
0 0.25 0.5
0 0.5 0.25
0 0.75 0.5
0 0.5 0.75
2 2 0 5
50
51
52
53
54
1 0.5 0.5
1 0.5 0.25
1 0.25 0.5
1 0.75 0.5
1 0.5 0.75
2 3 0 5
55
56
57
58
59
0.5 0 0.5
0.5 0 0.25
0.25 0 0.5
0.5 0 0.75
0.75 0 0.5
2 4 0 5
60
61
62
63
64
0.5 1 0.5
0.25 1 0.5
0.5 1 0.25
0.5 1 0.75
0.75 1 0.5
2 5 0 5
65
66
67
68
69
0.5 0.5 0
0.25 0.5 0
0.5 0.25 0
0.75 0.5 0
0.5 0.75 0
2 6 0 5
70
71
72
73
74
0.5 0.5 1
0.5 0.25 1
0.25 0.5 1
0.75 0.5 1
0.5 0.75 1
3 1 0 7
75
76
77
78
79
80
81
0.5 0.5 0.5
0.25 0.5 0.5
0.5 0.25 0.5
0.5 0.5 0.25
0.75 0.5 0.5
0.5 0.75 0.5
0.5 0.5 0.75
$EndNodes
$Elements
27 64 1 64
0 1 15 1
1 1 
0 2 15 1
2 2 
0 3 15 1
3 3 
0 4 15 1
4 4 
0 5 15 1
5 5 
0 6 15 1
6 6 
0 7 15 1
7 7 
0 8 15 1
8 8 
1 1 8 2
9 2 9 10 
10 9 1 11 
1 2 8 2
11 1 12 13 
12 12 3 14 
1 3 8 2
13 4 15 16 
14 15 3 17 
1 4 8 2
15 2 18 19 
16 18 4 20 
1 5 8 2
17 6 21 22 
18 21 5 23 
1 6 8 2
19 5 24 25 
20 24 7 26 
1 7 8 2
21 8 27 28 
22 27 7 29 
1 8 8 2
23 6 30 31 
24 30 8 32 
1 9 8 2
25 2 33 34 
26 33 6 35 
1 10 8 2
27 1 36 37 
28 36 5 38 
1 11 8 2
29 4 39 40 
30 39 8 41 
1 12 8 2
31 3 42 43 
32 42 7 44 
2 1 16 4
33 2 9 45 18 10 46 47 19 
34 18 45 15 4 47 48 16 20 
35 9 1 12 45 11 13 49 46 
36 45 12 3 15 49 14 17 48 
2 2 16 4
37 6 30 50 21 31 51 52 22 
38 30 8 27 50 32 28 53 51 
39 21 50 24 5 52 54 25 23 
40 50 27 7 24 53 29 26 54 
2 3 16 4
41 2 33 55 9 34 56 57 10 
42 9 55 36 1 57 58 37 11 
43 33 6 21 55 35 22 59 56 
44 55 21 5 36 59 23 38 58 
2 4 16 4
45 4 15 60 39 16 61 62 40 
46 15 3 42 60 17 43 63 61 
47 39 60 27 8 62 64 28 41 
48 60 42 7 27 63 44 29 64 
2 5 16 4
49 2 18 65 33 19 66 67 34 
50 33 65 30 6 67 68 31 35 
51 18 4 39 65 20 40 69 66 
52 65 39 8 30 69 41 32 68 
2 6 16 4
53 1 36 70 12 37 71 72 13 
54 36 5 24 70 38 25 73 71 
55 12 70 42 3 72 74 43 14 
56 70 24 7 42 73 26 44 74 
3 1 17 8
57 45 9 2 18 75 55 33 65 46 47 76 10 57 19 34 66 77 78 56 67 
58 75 55 33 65 50 21 6 30 77 78 79 56 59 67 35 68 52 51 22 31 
59 15 45 18 4 60 75 65 39 48 16 61 47 76 20 66 40 80 62 78 69 
60 60 75 65 39 27 50 30 8 80 62 64 78 79 69 68 41 53 28 51 32 
61 12 1 9 45 70 36 55 75 13 49 72 11 37 46 57 76 71 81 58 77 
62 70 36 55 75 24 5 21 50 71 81 73 58 38 77 59 79 25 54 23 52 
63 3 12 45 15 42 70 75 60 14 17 43 49 72 48 76 61 74 63 81 80 
64 42 70 75 60 7 24 50 27 74 63 44 81 73 80 79 64 26 29 54 53 
$EndElements
