<?xml version="1.0" encoding="utf-8"?>
<!-- Generator: Adobe Illustrator 23.1.0, SVG Export Plug-In . SVG Version: 6.00 Build 0)  -->
<svg version="1.1" xmlns="http://www.w3.org/2000/svg" xmlns:xlink="http://www.w3.org/1999/xlink" x="0px" y="0px"
	 viewBox="0 0 800 600" style="enable-background:new 0 0 800 600;" xml:space="preserve">
<style type="text/css">
	.st0{fill:#0066A0;}
	.st1{fill:#093870;}
	.st2{fill:url(#SVGID_1_);}
</style>
<g id="图层_4">
</g>
<g id="图层_3">
	<path class="st0" d="M50.4,273c0,0,530.3-246.1,749.6-148.6c0,0-160,191.8-255.9,297.2c0,0-134.8,20-154.9-7.1
		c0,0,77-21.2,79.7-67.9c3.1-54.3-95.1-93.9-165.4-85.4c-122.8,14.8-231.9,60.9-231.9,60.9S55.9,295.4,50.4,273z"/>
	<path class="st1" d="M78.3,335.9c0,0,148.5-51.4,253.8-52.4s93.8,54.5,82.8,70.2c-11,15.7-36.2,41.9-96.4,26.2
		c-60.3-15.7-108.5-33.5-218.6-17.3l-12-11.9L78.3,335.9z"/>
	<linearGradient id="SVGID_1_" gradientUnits="userSpaceOnUse" x1="9.094947e-13" y1="309.343" x2="662.9252" y2="309.343">
		<stop  offset="0" style="stop-color:#9F9F9F"/>
		<stop  offset="1" style="stop-color:#D3D3D3"/>
	</linearGradient>
	<path class="st2" d="M612,345.2c41.9,149.2-93.8,193.6-180.8,185.7C160.3,506.4,67.3,315.5,67.3,315.5s-82.9-175,75.1-223.3
		C284.1,48.9,433,136.8,433,136.8l44.7-10.7c0,0-166-106.2-333.1-72.5C-34.6,89.8-9.9,265,23.9,329.4
		C55.1,388.6,145,523,347.3,561.8c227,43.5,287.7-70.5,295.1-82c7.3-11.5,43.2-88.1-1.6-167.8L612,345.2z"/>
</g>
</svg>
