<?xml version="1.0" encoding="utf-8"?>
<!-- Generator: Adobe Illustrator 23.1.0, SVG Export Plug-In . SVG Version: 6.00 Build 0)  -->
<svg version="1.1" xmlns="http://www.w3.org/2000/svg" xmlns:xlink="http://www.w3.org/1999/xlink" x="0px" y="0px"
	 viewBox="0 0 256 256" style="enable-background:new 0 0 256 256;" xml:space="preserve">
<style type="text/css">
	.st0{fill:#A28738;}
	.st1{fill:#FFFFFF;stroke:#699C51;stroke-width:4;stroke-miterlimit:10;}
	.st2{fill:#E9CD6C;stroke:#A28738;stroke-width:4;stroke-miterlimit:10;}
	.st3{fill:url(#SVGID_1_);stroke:#699C51;stroke-width:4;stroke-miterlimit:10;}
	.st4{fill:#BD572F;}
</style>
<g id="图层_3_1_">
	<rect x="30.3" y="21.1" class="st0" width="172.1" height="3.9"/>
	<rect x="30.3" y="71.2" class="st0" width="172.1" height="3.9"/>
	<rect x="30.3" y="121.2" class="st0" width="172.1" height="3.9"/>
	<rect x="30.3" y="171.6" class="st0" width="172.1" height="3.9"/>
</g>
<g id="图层_2">
	<circle class="st1" cx="51.1" cy="22.9" r="16.4"/>
	<circle class="st1" cx="51.1" cy="73.2" r="16.4"/>
	<circle class="st1" cx="51.1" cy="123.4" r="16.4"/>
	<circle class="st1" cx="95.9" cy="123.4" r="16.4"/>
	<circle class="st1" cx="184" cy="123.4" r="16.4"/>
	<circle class="st1" cx="51.1" cy="173.7" r="16.4"/>
	<circle class="st1" cx="176" cy="173.7" r="16.4"/>
	<circle class="st1" cx="122.3" cy="173.7" r="16.4"/>
	<circle class="st1" cx="88" cy="22.9" r="16.4"/>
	<circle class="st1" cx="124.4" cy="22.9" r="16.4"/>
	<circle class="st1" cx="148.6" cy="73.2" r="16.4"/>
	<circle class="st1" cx="184.9" cy="73.2" r="16.4"/>
</g>
<g id="图层_1">
	<rect x="2" y="209.3" class="st2" width="232.4" height="44.7"/>
	<rect x="13" y="3.3" class="st2" width="17.3" height="215.8"/>
	<rect x="205" y="3.3" class="st2" width="17.3" height="215.8"/>
	<linearGradient id="SVGID_1_" gradientUnits="userSpaceOnUse" x1="199.4261" y1="254" x2="199.4261" y2="144.8889">
		<stop  offset="0" style="stop-color:#9BBF82"/>
		<stop  offset="1" style="stop-color:#ABCE91"/>
	</linearGradient>
	<circle class="st3" cx="199.4" cy="199.4" r="54.6"/>
	<rect x="176.2" y="176.2" class="st4" width="46.4" height="46.4"/>
</g>
</svg>
