<?xml version="1.0" encoding="utf-8"?>
<!-- Generator: Adobe Illustrator 23.1.0, SVG Export Plug-In . SVG Version: 6.00 Build 0)  -->
<svg version="1.1" xmlns="http://www.w3.org/2000/svg" xmlns:xlink="http://www.w3.org/1999/xlink" x="0px" y="0px"
	 viewBox="0 0 256 256" style="enable-background:new 0 0 256 256;" xml:space="preserve">
<style type="text/css">
	.st0{display:none;}
	.st1{display:inline;fill:#FFFF00;}
	.st2{fill:url(#SVGID_1_);stroke:#4A7033;stroke-width:4;stroke-linecap:round;stroke-linejoin:round;stroke-miterlimit:10;}
	.st3{fill:#FFFFFF;stroke:#4A7033;stroke-width:4;stroke-linecap:round;stroke-linejoin:round;stroke-miterlimit:10;}
	.st4{fill:none;stroke:#4A7033;stroke-width:4;stroke-linecap:round;stroke-linejoin:round;stroke-miterlimit:10;}
	.st5{fill:url(#SVGID_2_);stroke:#4A7033;stroke-width:4;stroke-linecap:round;stroke-linejoin:round;stroke-miterlimit:10;}
	.st6{fill:#76ACB4;stroke:#7C5D25;stroke-width:4;stroke-miterlimit:10;}
	.st7{fill:url(#SVGID_3_);stroke:#7C5D25;stroke-width:3;stroke-miterlimit:10;}
	.st8{fill:url(#SVGID_4_);stroke:#7A3B21;stroke-width:4;stroke-miterlimit:10;}
</style>
<g id="图层_1" class="st0">
</g>
<g id="图层_3" class="st0">
	<rect x="0.42" class="st1" width="255.17" height="255.17"/>
</g>
<g id="图层_4">
	<linearGradient id="SVGID_1_" gradientUnits="userSpaceOnUse" x1="128" y1="210.1667" x2="128" y2="19.8333">
		<stop  offset="0" style="stop-color:#D3E6C7"/>
		<stop  offset="1" style="stop-color:#E8F1E1"/>
	</linearGradient>
	<path class="st2" d="M2.5,124.83c0,0,28.67-105,126.67-105s124.33,105,124.33,105S160.17,149.5,129,210.17
		C129,210.17,80.47,132.83,2.5,124.83z"/>
	<line class="st3" x1="129.17" y1="19.83" x2="129.17" y2="207.72"/>
	<path class="st4" d="M30,71.12c0,0,47.5,2.38,99.17,36.38c0,0,51.4-36.76,98.03-36.38"/>
	<path class="st4" d="M83.49,156.6"/>
	<linearGradient id="SVGID_2_" gradientUnits="userSpaceOnUse" x1="83.4869" y1="156.5968" x2="83.4869" y2="156.5968">
		<stop  offset="0" style="stop-color:#D3E6C7"/>
		<stop  offset="1" style="stop-color:#E8F1E1"/>
	</linearGradient>
	<path class="st5" d="M83.49,156.6"/>
	<path class="st4" d="M129.17,107.5c0,0,31.67,19.33,49.33,49.1"/>
	<path class="st4" d="M81.69,159.1c16.47-29.26,47.47-51.6,47.47-51.6c-52,1-97.4,21.72-97.4,21.72
		c37.26-66.61,97.4-85.39,97.4-85.39s69,23.67,96.67,89c0,0-42.67-24.33-94.67-25.33"/>
	<path class="st4" d="M128.6,42.17c-27.57-9.67-67.14-1.69-67.14-1.69c10.62,18.64,9.61,39.25,9.61,39.25
		c-44.22,14-68.56,45.11-68.56,45.11"/>
	<path class="st4" d="M253.5,124.83c0,0-18.33-28.71-67.39-46.24c0,0-0.78-25.81,10.3-38.12"/>
	<path class="st4" d="M129.17,43.83"/>
	<path class="st4" d="M195.12,39.57c0,0-36.45-8.07-65.12,2.26"/>
	
		<rect x="196.68" y="159.05" transform="matrix(0.8567 -0.5157 0.5157 0.8567 -57.4491 127.4158)" class="st6" width="7.91" height="16.14"/>
	
		<linearGradient id="SVGID_3_" gradientUnits="userSpaceOnUse" x1="147.2444" y1="202.1144" x2="147.2444" y2="133.3779" gradientTransform="matrix(0.4841 -0.875 0.875 0.4841 -39.969 179.8993)">
		<stop  offset="0" style="stop-color:#CEE5E9"/>
		<stop  offset="1" style="stop-color:#CEE5E9"/>
	</linearGradient>
	<circle class="st7" cx="178.09" cy="132.26" r="34.37"/>
	
		<linearGradient id="SVGID_4_" gradientUnits="userSpaceOnUse" x1="109.4423" y1="221.9186" x2="121.5005" y2="228.8804" gradientTransform="matrix(0.4841 -0.875 0.875 0.4841 -39.969 179.8993)">
		<stop  offset="0" style="stop-color:#BC572F"/>
		<stop  offset="0.6173" style="stop-color:#BC572F"/>
		<stop  offset="0.6397" style="stop-color:#843F23"/>
		<stop  offset="1" style="stop-color:#843F23"/>
	</linearGradient>
	<path class="st8" d="M228.63,205.76l-6.63,3.99c-1.36,0.82-3.13,0.38-3.96-0.98l-21.33-34.63c-0.82-1.36-0.38-3.13,0.98-3.96
		l6.63-3.99c1.36-0.82,3.13-0.38,3.96,0.98l21.33,34.63C230.43,203.17,229.99,204.94,228.63,205.76z"/>
</g>
<g id="图层_2">
</g>
</svg>
