<?xml version="1.0" encoding="utf-8"?>
<!-- Generator: Adobe Illustrator 23.1.0, SVG Export Plug-In . SVG Version: 6.00 Build 0)  -->
<svg version="1.1" xmlns="http://www.w3.org/2000/svg" xmlns:xlink="http://www.w3.org/1999/xlink" x="0px" y="0px"
	 viewBox="0 0 256 256" style="enable-background:new 0 0 256 256;" xml:space="preserve">
<style type="text/css">
	.st0{display:none;}
	.st1{fill:url(#SVGID_1_);stroke:#4A7033;stroke-width:4;stroke-linecap:round;stroke-linejoin:round;stroke-miterlimit:10;}
	.st2{fill:#FFFFFF;stroke:#4A7033;stroke-width:4;stroke-linecap:round;stroke-linejoin:round;stroke-miterlimit:10;}
	.st3{fill:none;stroke:#4A7033;stroke-width:4;stroke-linecap:round;stroke-linejoin:round;stroke-miterlimit:10;}
	.st4{fill:url(#SVGID_2_);stroke:#4A7033;stroke-width:4;stroke-linecap:round;stroke-linejoin:round;stroke-miterlimit:10;}
	.st5{fill:url(#SVGID_3_);}
	.st6{fill:#786A2F;}
</style>
<g id="图层_1" class="st0">
</g>
<g id="图层_3">
</g>
<g id="图层_2">
	<linearGradient id="SVGID_1_" gradientUnits="userSpaceOnUse" x1="128.8333" y1="228.3333" x2="128.8333" y2="38">
		<stop  offset="0" style="stop-color:#D3E6C7"/>
		<stop  offset="1" style="stop-color:#E8F1E1"/>
	</linearGradient>
	<path class="st1" d="M3.33,143C3.33,143,32,38,130,38s124.33,105,124.33,105s-93.33,24.67-124.5,85.33
		C129.83,228.33,81.3,151,3.33,143z"/>
	<line class="st2" x1="130" y1="38" x2="130" y2="225.89"/>
	<path class="st3" d="M30.83,89.29c0,0,47.5,2.38,99.17,36.38c0,0,51.4-36.76,98.03-36.38"/>
	<path class="st3" d="M84.32,174.76"/>
	<linearGradient id="SVGID_2_" gradientUnits="userSpaceOnUse" x1="84.3202" y1="174.7634" x2="84.3202" y2="174.7634">
		<stop  offset="0" style="stop-color:#D3E6C7"/>
		<stop  offset="1" style="stop-color:#E8F1E1"/>
	</linearGradient>
	<path class="st4" d="M84.32,174.76"/>
	<path class="st3" d="M130,125.67c0,0,31.67,19.33,49.33,49.1"/>
	<path class="st3" d="M82.53,177.26C99,148,130,125.67,130,125.67c-52,1-97.4,21.72-97.4,21.72C69.86,80.78,130,62,130,62
		s69,23.67,96.67,89c0,0-42.67-24.33-94.67-25.33"/>
	<path class="st3" d="M129.43,60.33c-27.57-9.67-67.14-1.69-67.14-1.69c10.62,18.64,9.61,39.25,9.61,39.25
		C27.68,111.9,3.33,143,3.33,143"/>
	<path class="st3" d="M254.33,143c0,0-18.33-28.71-67.39-46.24c0,0-0.78-25.81,10.3-38.12"/>
	<path class="st3" d="M130,62"/>
	<path class="st3" d="M195.95,57.74c0,0-36.45-8.07-65.12,2.26"/>
</g>
<g id="图层_6">
	<linearGradient id="SVGID_3_" gradientUnits="userSpaceOnUse" x1="196" y1="229" x2="196" y2="124">
		<stop  offset="0" style="stop-color:#EAD07D"/>
		<stop  offset="1" style="stop-color:#D2B55A"/>
	</linearGradient>
	<path class="st5" d="M248.5,165.95c-20.83-0.55-18.83-24.12-18.83-24.12l2.33-6.67l-2.83-3.22l-12.71-6.28l-3.29,2.33l-3.5,3
		l-6.5,3.5l-12,1.17L183.5,130l-6.17-6l-10.17,4l-6.42,5.17l1.42,6v11.05l-2.83,7.62l-4.67,5.33l-11.73,3.5l-2.94,8.1l2.94,11.74
		c28.94,4.17,18.06,33.67,18.06,33.67l17,8.83c19.5-24.33,38.46-0.67,38.46-0.67l15.54-8.67c-9.67-29.33,15.33-32.17,15.33-32.17
		l4.17-2.83l0.5-12.83L248.5,165.95z M196.82,193.04c-8.83,0-15.99-7.16-15.99-15.99s7.16-15.99,15.99-15.99
		c8.83,0,15.99,7.16,15.99,15.99S205.65,193.04,196.82,193.04z"/>
</g>
<g id="图层_5">
	<g>
		<g>
			<path class="st6" d="M144.07,163.9c3.06,0.06,6.1-0.7,8.78-2.21c2.58-1.45,4.81-3.59,6.4-6.34h0c1.58-2.75,2.32-5.75,2.29-8.71
				c-0.03-3.06-0.89-6.07-2.48-8.7c-0.66-1.09-0.87-2.33-0.67-3.49c0.21-1.17,0.83-2.27,1.82-3.07c2.31-1.86,4.77-3.54,7.34-5.03
				c2.56-1.48,5.24-2.77,8.01-3.85h0.01c1.19-0.46,2.44-0.45,3.56-0.04c1.12,0.41,2.1,1.21,2.71,2.32c1.48,2.69,3.66,4.94,6.29,6.5
				c2.54,1.5,5.51,2.37,8.69,2.37c3.18,0,6.15-0.86,8.69-2.37c2.63-1.56,4.81-3.81,6.29-6.5c0.61-1.11,1.59-1.92,2.71-2.32
				c1.12-0.41,2.38-0.42,3.56,0.04h0.01c2.77,1.08,5.45,2.37,8,3.85c2.58,1.49,5.03,3.17,7.34,5.03c1,0.8,1.61,1.9,1.82,3.07
				c0.21,1.16,0,2.4-0.67,3.49c-1.59,2.62-2.44,5.63-2.48,8.7c-0.03,2.96,0.7,5.96,2.29,8.71v0.01c1.58,2.74,3.81,4.87,6.39,6.33
				c2.68,1.51,5.72,2.27,8.78,2.21c1.27-0.03,2.45,0.42,3.36,1.19c0.92,0.77,1.56,1.86,1.75,3.12c0.22,1.44,0.39,2.91,0.5,4.41
				c0.11,1.49,0.17,2.98,0.17,4.45c0,1.47-0.06,2.96-0.17,4.45c-0.11,1.5-0.28,2.97-0.5,4.4c-0.19,1.25-0.83,2.34-1.75,3.12
				c-0.91,0.77-2.09,1.21-3.36,1.18c-3.06-0.06-6.1,0.7-8.78,2.21c-2.58,1.45-4.81,3.59-6.39,6.33c-1.59,2.75-2.32,5.76-2.29,8.72
				c0.03,3.06,0.89,6.07,2.48,8.69c0.66,1.1,0.87,2.34,0.67,3.5c-0.21,1.17-0.83,2.27-1.82,3.06c-2.31,1.86-4.77,3.54-7.34,5.03
				c-2.56,1.48-5.23,2.77-8,3.85h-0.01c-1.18,0.46-2.44,0.45-3.56,0.04c-1.12-0.41-2.1-1.21-2.71-2.32
				c-1.48-2.69-3.66-4.94-6.29-6.5c-2.54-1.51-5.51-2.37-8.69-2.37c-3.18,0-6.15,0.86-8.69,2.37c-2.63,1.56-4.81,3.81-6.29,6.5
				c-0.61,1.11-1.59,1.91-2.71,2.32c-1.12,0.41-2.38,0.42-3.57-0.04l0,0c-2.79-1.09-5.46-2.38-8-3.85
				c-2.58-1.49-5.03-3.17-7.34-5.03c-1-0.8-1.61-1.89-1.82-3.06c-0.21-1.16,0-2.4,0.67-3.5c1.59-2.62,2.44-5.63,2.48-8.69
				c0.03-2.96-0.7-5.97-2.29-8.72c-1.58-2.74-3.81-4.87-6.39-6.33c-2.68-1.51-5.72-2.28-8.78-2.21c-1.27,0.03-2.45-0.42-3.36-1.19
				c-0.92-0.78-1.56-1.86-1.75-3.12c-0.22-1.44-0.39-2.91-0.5-4.4c-0.11-1.49-0.17-2.98-0.17-4.45c0-1.47,0.06-2.95,0.17-4.44
				c0.11-1.5,0.28-2.97,0.5-4.41c0.19-1.26,0.83-2.34,1.75-3.12C141.62,164.32,142.8,163.87,144.07,163.9L144.07,163.9z
				 M155.36,166.17c-3.44,1.94-7.36,2.93-11.33,2.85c-0.2,1.32-0.35,2.64-0.45,3.97c-0.1,1.31-0.15,2.67-0.15,4.06
				c0,1.4,0.05,2.75,0.15,4.07c0.1,1.32,0.25,2.64,0.45,3.96c3.97-0.07,7.89,0.92,11.33,2.85c3.35,1.88,6.25,4.67,8.32,8.25
				c2.06,3.57,3.02,7.47,2.98,11.31c-0.04,3.96-1.14,7.85-3.19,11.25c2.09,1.68,4.32,3.2,6.66,4.55c2.32,1.34,4.74,2.51,7.24,3.48
				c1.92-3.47,4.74-6.38,8.15-8.4c3.32-1.96,7.18-3.09,11.3-3.09c4.12,0,7.98,1.13,11.3,3.09c3.41,2.02,6.23,4.92,8.15,8.39
				c2.52-0.99,4.94-2.15,7.24-3.48c2.34-1.35,4.56-2.87,6.66-4.55c-2.05-3.4-3.15-7.29-3.19-11.25c-0.04-3.84,0.91-7.74,2.98-11.31
				c2.07-3.58,4.97-6.37,8.32-8.25c3.44-1.94,7.36-2.93,11.33-2.85c0.2-1.32,0.35-2.64,0.45-3.96c0.1-1.32,0.15-2.67,0.15-4.07
				c0-1.39-0.05-2.75-0.15-4.06c-0.1-1.32-0.25-2.64-0.45-3.96c-3.97,0.07-7.89-0.91-11.33-2.85c-3.35-1.88-6.25-4.67-8.32-8.25l0,0
				c-2.06-3.57-3.02-7.47-2.98-11.32c0.04-3.96,1.14-7.86,3.19-11.25c-2.09-1.68-4.32-3.2-6.66-4.55c-2.3-1.33-4.72-2.5-7.24-3.48
				c-1.92,3.47-4.74,6.38-8.15,8.39c-3.32,1.96-7.18,3.09-11.3,3.09c-4.12,0-7.98-1.13-11.3-3.09c-3.41-2.02-6.23-4.92-8.15-8.39
				c-2.52,0.99-4.94,2.15-7.24,3.48c-2.34,1.35-4.56,2.88-6.66,4.55c2.05,3.4,3.15,7.29,3.19,11.25c0.04,3.84-0.91,7.74-2.98,11.31
				v0.01C161.62,161.5,158.71,164.28,155.36,166.17L155.36,166.17z M196.81,156.91c5.56,0,10.59,2.26,14.24,5.9
				c3.65,3.64,5.9,8.68,5.9,14.24c0,5.56-2.25,10.59-5.9,14.24c-3.64,3.64-8.68,5.9-14.24,5.9c-5.56,0-10.59-2.25-14.24-5.9
				c-3.65-3.65-5.9-8.68-5.9-14.24c0-5.56,2.25-10.59,5.9-14.24C186.22,159.17,191.25,156.91,196.81,156.91L196.81,156.91z
				 M207.42,166.45c-2.72-2.72-6.46-4.39-10.61-4.39c-4.14,0-7.89,1.68-10.61,4.39c-2.71,2.71-4.39,6.46-4.39,10.6
				c0,4.14,1.68,7.89,4.39,10.61c2.72,2.71,6.46,4.39,10.61,4.39c4.14,0,7.89-1.68,10.6-4.39c2.72-2.72,4.39-6.46,4.39-10.61
				C211.81,172.91,210.13,169.16,207.42,166.45L207.42,166.45z M207.42,166.45"/>
		</g>
	</g>
</g>
</svg>
