<?xml version="1.0" encoding="utf-8"?>
<!-- Generator: Adobe Illustrator 23.1.0, SVG Export Plug-In . SVG Version: 6.00 Build 0)  -->
<svg version="1.1" xmlns="http://www.w3.org/2000/svg" xmlns:xlink="http://www.w3.org/1999/xlink" x="0px" y="0px"
	 viewBox="0 0 256 256" style="enable-background:new 0 0 256 256;" xml:space="preserve">
<style type="text/css">
	.st0{display:none;}
	.st1{fill:none;stroke:#BF6845;stroke-width:8;stroke-miterlimit:10;}
	.st2{fill:#BF6845;}
	.st3{fill:none;stroke:#96401D;stroke-width:8;stroke-miterlimit:10;}
	.st4{fill:#96401D;}
	.st5{fill:none;stroke:#5B8045;stroke-width:8;stroke-miterlimit:10;}
	.st6{fill:#5B8045;}
	.st7{fill:none;stroke:#77B552;stroke-width:8;stroke-miterlimit:10;}
	.st8{fill:#77B552;}
	.st9{fill:none;stroke:#7989B5;stroke-width:8;stroke-miterlimit:10;}
	.st10{fill:#7989B5;}
	.st11{fill:none;stroke:#334D98;stroke-width:8;stroke-miterlimit:10;}
	.st12{fill:#334D98;}
	.st13{fill:none;stroke:#5B8045;stroke-width:4;stroke-miterlimit:10;}
	.st14{fill:#DDC26B;stroke:#A58F44;stroke-width:4;stroke-linecap:round;stroke-linejoin:round;stroke-miterlimit:10;}
</style>
<g id="图层_4" class="st0">
</g>
<g id="图层_7">
</g>
<g id="图层_6">
	<line class="st1" x1="134.4" y1="118" x2="134.4" y2="44.89"/>
	<polygon class="st2" points="134.71,1 121.15,48.83 147.65,48.83 	"/>
	<line class="st3" x1="150.46" y1="129.94" x2="194.53" y2="117.11"/>
	<polygon class="st4" points="236.76,105.14 187.04,105.49 194.44,130.94 	"/>
	<line class="st5" x1="130.96" y1="150.67" x2="115.33" y2="213.54"/>
	<polygon class="st6" points="104.22,256 129.15,212.98 103.46,206.45 	"/>
	<line class="st7" x1="146.57" y1="145.94" x2="188.86" y2="188.04"/>
	<polygon class="st8" points="219.75,219.23 195.41,175.87 176.72,194.65 	"/>
	<line class="st9" x1="120.34" y1="143.05" x2="54.22" y2="186.93"/>
	<polygon class="st10" points="17.36,210.74 64.79,195.85 50.26,173.69 	"/>
	<line class="st11" x1="120.34" y1="123.52" x2="77.11" y2="87.11"/>
	<polygon class="st12" points="43.9,58.42 71.52,99.76 88.71,79.58 	"/>
	<circle class="st13" cx="134.56" cy="134.56" r="16.56"/>
	<path class="st14" d="M153.11,43.33c0,0,38-8,56,11.33l19.33-15.56l5.11,60.64l-56.84-15.98L194.53,68
		C194.53,68,181.33,46.67,153.11,43.33z"/>
</g>
</svg>
