<?xml version="1.0" encoding="utf-8"?>
<!-- Generator: Adobe Illustrator 23.1.0, SVG Export Plug-In . SVG Version: 6.00 Build 0)  -->
<svg version="1.1" xmlns="http://www.w3.org/2000/svg" xmlns:xlink="http://www.w3.org/1999/xlink" x="0px" y="0px"
	 viewBox="0 0 256 256" style="enable-background:new 0 0 256 256;" xml:space="preserve">
<style type="text/css">
	.st0{display:none;}
	.st1{fill:#E8F1E2;}
	.st2{fill:url(#SVGID_1_);stroke:#90B07A;stroke-width:4;stroke-linecap:round;stroke-linejoin:round;stroke-miterlimit:10;}
	.st3{fill:none;stroke:#90B07A;stroke-width:4;stroke-linecap:round;stroke-linejoin:round;stroke-miterlimit:10;}
	.st4{fill:url(#SVGID_2_);stroke:#4A7033;stroke-width:4;stroke-linecap:round;stroke-linejoin:round;stroke-miterlimit:10;}
	.st5{fill:#4A7033;}
	.st6{fill:url(#SVGID_3_);stroke:#A18737;stroke-width:4;stroke-linecap:round;stroke-linejoin:round;stroke-miterlimit:10;}
	.st7{fill:#90B07A;}
</style>
<g id="图层_1" class="st0">
</g>
<g id="图层_3">
	<path class="st1" d="M85.75,3l33.97,34.36H88.05c-1.27,0-2.3-1.03-2.3-2.3V3"/>
</g>
<g id="图层_2">
	<linearGradient id="SVGID_1_" gradientUnits="userSpaceOnUse" x1="61.3588" y1="149.8889" x2="61.3588" y2="3">
		<stop  offset="0" style="stop-color:#D2E6C6"/>
		<stop  offset="1" style="stop-color:#E8F1E2"/>
	</linearGradient>
	<path class="st2" d="M85.75,34.05V3H7.31C4.93,3,3,4.93,3,7.31v138.28c0,2.38,1.93,4.31,4.31,4.31h108.1
		c2.38,0,4.31-1.93,4.31-4.31V37.36H89.05C87.23,37.36,85.75,35.88,85.75,34.05z"/>
	<line class="st3" x1="85.75" y1="3" x2="119.72" y2="37.36"/>
</g>
<g id="图层_4">
	<linearGradient id="SVGID_2_" gradientUnits="userSpaceOnUse" x1="169.9444" y1="254.2222" x2="169.9444" y2="124">
		<stop  offset="0" style="stop-color:#D2E6C6"/>
		<stop  offset="1" style="stop-color:#E8F1E2"/>
	</linearGradient>
	<path class="st4" d="M247.44,254.22h-155c-3.56,0-6.44-2.89-6.44-6.44V130.44c0-3.56,2.89-6.44,6.44-6.44h155
		c3.56,0,6.44,2.89,6.44,6.44v117.33C253.89,251.34,251,254.22,247.44,254.22z"/>
	<rect x="88" y="126" class="st5" width="163.89" height="28.78"/>
</g>
<g id="图层_5">
	
		<linearGradient id="SVGID_3_" gradientUnits="userSpaceOnUse" x1="179.4119" y1="60.1975" x2="104.7453" y2="134.8642" gradientTransform="matrix(-0.7071 0.7071 -0.7071 -0.7071 248.8454 61.5915)">
		<stop  offset="0" style="stop-color:#EAD17F"/>
		<stop  offset="1" style="stop-color:#D1B357"/>
	</linearGradient>
	<polygon class="st6" points="132.45,145.89 124.36,71.8 103.61,92.54 51.37,40.29 26.38,65.28 78.63,117.53 58.36,137.8 	"/>
	<rect x="114.22" y="154.78" class="st7" width="4" height="97.39"/>
	
		<rect x="100.42" y="200.36" transform="matrix(-1.836970e-16 1 -1 -1.836970e-16 317.1945 112.3611)" class="st7" width="4" height="28.83"/>
	
		<rect x="182.96" y="116.07" transform="matrix(-1.836970e-16 1 -1 -1.836970e-16 367.9606 -1.9606)" class="st7" width="4" height="133.86"/>
</g>
</svg>
