<?xml version="1.0" encoding="utf-8"?>
<!-- Generator: Adobe Illustrator 23.1.0, SVG Export Plug-In . SVG Version: 6.00 Build 0)  -->
<svg version="1.1" xmlns="http://www.w3.org/2000/svg" xmlns:xlink="http://www.w3.org/1999/xlink" x="0px" y="0px"
	 viewBox="0 0 256 256" style="enable-background:new 0 0 256 256;" xml:space="preserve">
<style type="text/css">
	.st0{display:none;}
	.st1{fill:#E8F1E2;}
	.st2{fill:none;stroke:#90B07A;stroke-width:4;stroke-linecap:round;stroke-linejoin:round;stroke-miterlimit:10;}
	.st3{fill:url(#SVGID_1_);stroke:#90B07A;stroke-width:4;stroke-linecap:round;stroke-linejoin:round;stroke-miterlimit:10;}
	.st4{fill:url(#SVGID_2_);}
	.st5{fill:#834D81;stroke:#7E497C;stroke-width:2;stroke-linecap:round;stroke-linejoin:round;stroke-miterlimit:10;}
	.st6{fill:#CCA0CA;}
	.st7{fill:url(#SVGID_3_);stroke:#4A7033;stroke-width:4;stroke-linecap:round;stroke-linejoin:round;stroke-miterlimit:10;}
	.st8{fill:#4A7033;}
	.st9{fill:#90B07A;}
	.st10{fill:url(#SVGID_4_);stroke:#A18737;stroke-width:4;stroke-linecap:round;stroke-linejoin:round;stroke-miterlimit:10;}
</style>
<g id="图层_1" class="st0">
</g>
<g id="图层_3">
	<path class="st1" d="M219.92,3l33.97,34.36h-31.67c-1.27,0-2.3-1.03-2.3-2.3V3"/>
</g>
<g id="图层_2">
	<path class="st2" d="M253.89,37.36"/>
	<linearGradient id="SVGID_1_" gradientUnits="userSpaceOnUse" x1="193.5301" y1="152.8889" x2="193.5301" y2="3">
		<stop  offset="0" style="stop-color:#E7F0E0"/>
		<stop  offset="1" style="stop-color:#E8F1E2"/>
	</linearGradient>
	<path class="st3" d="M253.89,37.36V7.89c0-2.7-2.19-4.89-4.89-4.89h-29.08h-82.44c-2.38,0-4.31,1.93-4.31,4.31v141.28
		c0,2.38,1.93,4.31,4.31,4.31h112.1c2.38,0,4.31-1.93,4.31-4.31V37.36"/>
	<linearGradient id="SVGID_2_" gradientUnits="userSpaceOnUse" x1="193.7997" y1="125" x2="193.7997" y2="14.1784">
		<stop  offset="0" style="stop-color:#90B07A"/>
		<stop  offset="1" style="stop-color:#D4E8CA"/>
	</linearGradient>
	<rect x="143.89" y="14.18" class="st4" width="99.82" height="110.82"/>
	<polygon class="st5" points="194.71,26.88 151.02,98.55 200.58,109.66 236.58,100.99 	"/>
	<polygon class="st6" points="194.63,28.92 152.17,98.5 200.44,108.56 	"/>
</g>
<g id="图层_4">
	<linearGradient id="SVGID_3_" gradientUnits="userSpaceOnUse" x1="87" y1="254.2222" x2="87" y2="124">
		<stop  offset="0" style="stop-color:#D2E6C6"/>
		<stop  offset="1" style="stop-color:#E8F1E2"/>
	</linearGradient>
	<path class="st7" d="M164.5,254.22H9.5c-3.56,0-6.44-2.89-6.44-6.44V130.44c0-3.56,2.89-6.44,6.44-6.44h155
		c3.56,0,6.44,2.89,6.44,6.44v117.33C170.94,251.34,168.06,254.22,164.5,254.22z"/>
	<rect x="5.06" y="126" class="st8" width="163.89" height="28.78"/>
</g>
<g id="图层_6">
</g>
<g id="图层_5">
	<rect x="31.28" y="154.78" class="st9" width="4" height="97.39"/>
	
		<rect x="17.47" y="200.36" transform="matrix(-1.836970e-16 1 -1 -1.836970e-16 234.25 195.3056)" class="st9" width="4" height="28.83"/>
	
		<rect x="100.02" y="116.07" transform="matrix(-1.836970e-16 1 -1 -1.836970e-16 285.0161 80.9838)" class="st9" width="4" height="133.86"/>
	
		<linearGradient id="SVGID_4_" gradientUnits="userSpaceOnUse" x1="263.0376" y1="126.085" x2="188.3709" y2="200.7516" gradientTransform="matrix(0.7071 0.7071 -0.7071 0.7071 83.9572 -128.4845)">
		<stop  offset="0" style="stop-color:#EAD17F"/>
		<stop  offset="1" style="stop-color:#D1B357"/>
	</linearGradient>
	<polygon class="st10" points="180.8,93.63 106.71,101.73 127.45,122.47 75.2,174.72 100.19,199.7 152.43,147.45 172.7,167.72 	"/>
</g>
</svg>
