<?xml version="1.0" encoding="utf-8"?>
<!-- Generator: Adobe Illustrator 23.1.0, SVG Export Plug-In . SVG Version: 6.00 Build 0)  -->
<svg version="1.1" xmlns="http://www.w3.org/2000/svg" xmlns:xlink="http://www.w3.org/1999/xlink" x="0px" y="0px"
	 viewBox="0 0 256 256" style="enable-background:new 0 0 256 256;" xml:space="preserve">
<style type="text/css">
	.st0{display:none;}
	.st1{display:inline;fill:#FFFF00;}
	.st2{fill:none;stroke:#BC572F;stroke-width:7;stroke-linecap:round;stroke-miterlimit:10;}
	.st3{fill:none;stroke:#BC572F;stroke-width:19;stroke-linecap:round;stroke-miterlimit:10;}
	.st4{fill:#BC572F;}
	.st5{fill:none;stroke:#6A994D;stroke-width:20;stroke-miterlimit:10;}
</style>
<g id="图层_1" class="st0">
</g>
<g id="图层_3" class="st0">
	<rect x="0.42" class="st1" width="255.17" height="255.17"/>
</g>
<g id="图层_4">
	<path class="st2" d="M115.36,174.74c0,0,2.66,30.24,12.59,30.24s4.55-59.99,21.12-59.99c17.13,0,7.13,59.3,20.77,59.3
		c13.43,0,8.74-59.3,16.15-59.3c0,0,7.45-1.12,7.45,28.53"/>
	<path class="st3" d="M140.91,113.61H90.86V58.35h50.06c14.55,0,26.35,11.8,26.35,26.35v2.54
		C167.27,101.81,155.47,113.61,140.91,113.61z"/>
	<rect x="81.19" y="108.7" class="st4" width="19.34" height="96.29"/>
</g>
<g id="图层_2">
	<circle class="st5" cx="128" cy="128" r="118"/>
</g>
</svg>
