<?xml version="1.0" encoding="utf-8"?>
<!-- Generator: Adobe Illustrator 23.1.0, SVG Export Plug-In . SVG Version: 6.00 Build 0)  -->
<svg version="1.1" xmlns="http://www.w3.org/2000/svg" xmlns:xlink="http://www.w3.org/1999/xlink" x="0px" y="0px"
	 viewBox="0 0 256 256" style="enable-background:new 0 0 256 256;" xml:space="preserve">
<style type="text/css">
	.st0{display:none;}
	.st1{fill:none;stroke:#BC572F;stroke-width:28;stroke-linecap:round;stroke-miterlimit:10;}
	.st2{fill:#BC572F;}
</style>
<g id="图层_1" class="st0">
</g>
<g id="图层_3">
	<path class="st1" d="M130.74,114.56h-70.6v-80h70.63c22.08,0,39.99,17.9,39.99,39.99v0C170.75,96.64,152.84,114.56,130.74,114.56z"
		/>
	<rect x="46.14" y="107.44" class="st2" width="28" height="139.39"/>
</g>
<g id="图层_4">
	<g>
		<g>
			<path class="st2" d="M208.53,177.25c-5.33,0.8-10.61-1.76-13.3-6.44l-0.04-0.06c-2.72-4.66-2.31-10.51,1.05-14.74
				c2.2-2.79,1.74-6.9-1.04-9.15c-4.77-3.86-10.12-6.93-15.86-9.1c-3.35-1.27-7.09,0.38-8.42,3.71c-1.99,5-6.83,8.29-12.22,8.29
				c-5.37,0.02-10.21-3.24-12.21-8.23c-1.34-3.35-5.12-4.99-8.49-3.7c-5.7,2.2-11.03,5.29-15.78,9.14c-1.35,1.09-2.2,2.68-2.38,4.4
				c-0.18,1.71,0.32,3.43,1.39,4.78c2.35,3,3.29,6.87,2.57,10.61c-0.72,3.74-3.03,6.99-6.33,8.9c-2.56,1.47-5.53,2.05-8.46,1.64
				c-3.54-0.51-6.84,1.92-7.41,5.46c-0.97,6.05-0.97,12.23,0,18.28c0.57,3.53,3.89,5.97,7.42,5.45c5.33-0.79,10.61,1.76,13.31,6.43
				c2.7,4.67,2.28,10.51-1.06,14.74c-2.21,2.79-1.74,6.9,1.03,9.15c4.77,3.86,10.12,6.94,15.85,9.12c1.62,0.62,3.41,0.56,4.99-0.15
				c1.57-0.7,2.8-1.99,3.44-3.58c2-4.98,6.83-8.25,12.2-8.25c5.37,0,10.2,3.26,12.21,8.24c1.34,3.35,5.12,5,8.49,3.71
				c5.69-2.19,11.01-5.27,15.75-9.1c2.8-2.27,3.26-6.37,1.03-9.21c-3.32-4.22-3.74-10.03-1.05-14.68c2.67-4.67,7.92-7.23,13.25-6.46
				c1.7,0.25,3.43-0.18,4.82-1.19c1.41-1.01,2.35-2.54,2.62-4.25c0.98-6.05,0.98-12.23,0.01-18.28
				C215.38,179.18,212.05,176.73,208.53,177.25L208.53,177.25z M172.46,183.96c4.35,7.53,1.76,17.2-5.78,21.56
				c-7.54,4.35-17.21,1.76-21.56-5.77c-4.35-7.53-1.76-17.21,5.78-21.56C158.44,173.83,168.1,176.42,172.46,183.96L172.46,183.96z
				 M172.46,183.96"/>
		</g>
	</g>
</g>
</svg>
