<?xml version="1.0" encoding="utf-8"?>
<!-- Generator: Adobe Illustrator 23.1.0, SVG Export Plug-In . SVG Version: 6.00 Build 0)  -->
<svg version="1.1" xmlns="http://www.w3.org/2000/svg" xmlns:xlink="http://www.w3.org/1999/xlink" x="0px" y="0px"
	 viewBox="0 0 256 256" style="enable-background:new 0 0 256 256;" xml:space="preserve">
<style type="text/css">
	.st0{display:none;}
	.st1{fill:url(#SVGID_1_);stroke:#4A7033;stroke-width:4;stroke-linecap:round;stroke-linejoin:round;stroke-miterlimit:10;}
	.st2{fill:#FFFFFF;stroke:#4A7033;stroke-width:4;stroke-linecap:round;stroke-linejoin:round;stroke-miterlimit:10;}
	.st3{fill:none;stroke:#4A7033;stroke-width:4;stroke-linecap:round;stroke-linejoin:round;stroke-miterlimit:10;}
	.st4{fill:url(#SVGID_2_);stroke:#4A7033;stroke-width:4;stroke-linecap:round;stroke-linejoin:round;stroke-miterlimit:10;}
</style>
<g id="图层_1" class="st0">
</g>
<g id="图层_3">
</g>
<g id="图层_2">
	<linearGradient id="SVGID_1_" gradientUnits="userSpaceOnUse" x1="128.8333" y1="228.3333" x2="128.8333" y2="38">
		<stop  offset="0" style="stop-color:#D3E6C7"/>
		<stop  offset="1" style="stop-color:#E8F1E1"/>
	</linearGradient>
	<path class="st1" d="M3.33,143C3.33,143,32,38,130,38s124.33,105,124.33,105s-93.33,24.67-124.5,85.33
		C129.83,228.33,81.3,151,3.33,143z"/>
	<line class="st2" x1="130" y1="38" x2="130" y2="225.89"/>
	<path class="st3" d="M30.83,89.29c0,0,47.5,2.38,99.17,36.38c0,0,51.4-36.76,98.03-36.38"/>
	<path class="st3" d="M84.32,174.76"/>
	<linearGradient id="SVGID_2_" gradientUnits="userSpaceOnUse" x1="84.3202" y1="174.7634" x2="84.3202" y2="174.7634">
		<stop  offset="0" style="stop-color:#D3E6C7"/>
		<stop  offset="1" style="stop-color:#E8F1E1"/>
	</linearGradient>
	<path class="st4" d="M84.32,174.76"/>
	<path class="st3" d="M130,125.67c0,0,31.67,19.33,49.33,49.1"/>
	<path class="st3" d="M82.53,177.26C99,148,130,125.67,130,125.67c-52,1-97.4,21.72-97.4,21.72C69.86,80.78,130,62,130,62
		s69,23.67,96.67,89c0,0-42.67-24.33-94.67-25.33"/>
	<path class="st3" d="M129.43,60.33c-27.57-9.67-67.14-1.69-67.14-1.69c10.62,18.64,9.61,39.25,9.61,39.25
		C27.68,111.9,3.33,143,3.33,143"/>
	<path class="st3" d="M254.33,143c0,0-18.33-28.71-67.39-46.24c0,0-0.78-25.81,10.3-38.12"/>
	<path class="st3" d="M130,62"/>
	<path class="st3" d="M195.95,57.74c0,0-36.45-8.07-65.12,2.26"/>
</g>
<g id="图层_5">
</g>
</svg>
