<?xml version="1.0" encoding="utf-8"?>
<!-- Generator: Adobe Illustrator 23.1.0, SVG Export Plug-In . SVG Version: 6.00 Build 0)  -->
<svg version="1.1" xmlns="http://www.w3.org/2000/svg" xmlns:xlink="http://www.w3.org/1999/xlink" x="0px" y="0px"
	 viewBox="0 0 256 256" style="enable-background:new 0 0 256 256;" xml:space="preserve">
<style type="text/css">
	.st0{display:none;}
	.st1{display:inline;fill:#FFFF00;}
	.st2{fill:url(#SVGID_1_);stroke:#4A7033;stroke-width:4;stroke-linecap:round;stroke-linejoin:round;stroke-miterlimit:10;}
	.st3{fill:#FFFFFF;stroke:#4A7033;stroke-width:4;stroke-linecap:round;stroke-linejoin:round;stroke-miterlimit:10;}
	.st4{fill:#6A994D;}
	.st5{fill:none;stroke:#C06844;stroke-width:8;stroke-linecap:round;stroke-linejoin:round;stroke-miterlimit:10;}
</style>
<g id="图层_1" class="st0">
</g>
<g id="图层_3" class="st0">
	<rect x="0.42" class="st1" width="255.17" height="255.17"/>
</g>
<g id="图层_4">
	
		<radialGradient id="SVGID_1_" cx="107.744" cy="53.9757" r="146.0759" fx="156.516" fy="67.5653" gradientTransform="matrix(0.4386 -0.8987 0.878 0.4285 13.0952 127.6726)" gradientUnits="userSpaceOnUse">
		<stop  offset="0.04" style="stop-color:#EE1B1B"/>
		<stop  offset="0.0947" style="stop-color:#EB3218"/>
		<stop  offset="0.2635" style="stop-color:#E4740F"/>
		<stop  offset="0.3429" style="stop-color:#E18E0B"/>
		<stop  offset="0.3686" style="stop-color:#DF980D"/>
		<stop  offset="0.4615" style="stop-color:#DAB912"/>
		<stop  offset="0.5393" style="stop-color:#D7CD16"/>
		<stop  offset="0.5919" style="stop-color:#D6D417"/>
		<stop  offset="0.8732" style="stop-color:#12A720"/>
	</radialGradient>
	<rect x="6" y="6" class="st2" width="154.33" height="154.33"/>
	<circle class="st3" cx="176.67" cy="176.44" r="76.89"/>
	<circle class="st4" cx="176.61" cy="176.22" r="13.1"/>
	<path class="st5" d="M149.5,156.59c0,0-7.93,7.93-7.93,20.37c0,12.44,9.21,20.28,9.21,20.28"/>
	<path class="st5" d="M137.31,137.58c0,0-13.08,13.57-13.08,39.33s13.08,38.4,13.08,38.4"/>
	<path class="st5" d="M203.83,156.59c0,0,7.93,7.93,7.93,20.37c0,12.44-9.21,20.28-9.21,20.28"/>
	<path class="st5" d="M216.02,137.58c0,0,13.08,13.57,13.08,39.33s-13.08,38.4-13.08,38.4"/>
</g>
<g id="图层_2">
</g>
</svg>
