# CAD Exchanger 3.8.1 (cadexchanger.com)
# Object Count: 1
mtllib cube0.01.mtl
g 1
v 0.000000 0.000000 0.000000
v 0.000000 0.000000 10.000000
v 0.000000 10.000000 10.000000
v 0.000000 10.000000 0.000000
v 10.000000 10.000000 10.000000
v 10.000000 10.000000 0.000000
v 10.000000 0.000000 0.000000
v 10.000000 0.000000 10.000000
vn -1.000000 0.000000 0.000000
vn -1.000000 0.000000 0.000000
vn -1.000000 0.000000 0.000000
vn -1.000000 0.000000 0.000000
vn 0.000000 1.000000 0.000000
vn 0.000000 1.000000 0.000000
vn 0.000000 1.000000 0.000000
vn 0.000000 1.000000 0.000000
vn 0.000000 -1.000000 0.000000
vn 0.000000 -1.000000 0.000000
vn 0.000000 -1.000000 0.000000
vn 0.000000 -1.000000 0.000000
vn 0.000000 0.000000 1.000000
vn 0.000000 0.000000 1.000000
vn 0.000000 0.000000 1.000000
vn 0.000000 0.000000 1.000000
vn 1.000000 0.000000 0.000000
vn 1.000000 0.000000 0.000000
vn 1.000000 0.000000 0.000000
vn 1.000000 0.000000 0.000000
vn 0.000000 0.000000 -1.000000
vn 0.000000 0.000000 -1.000000
vn 0.000000 0.000000 -1.000000
vn 0.000000 0.000000 -1.000000
f 3//3 1//1 2//2
f 4//4 1//1 3//3
f 5//7 4//5 3//6
f 6//8 4//5 5//7
f 2//11 7//9 8//10
f 1//12 7//9 2//11
f 5//15 2//13 8//14
f 3//16 2//13 5//15
f 5//19 7//17 6//18
f 8//20 7//17 5//19
f 1//23 4//24 6//21
f 1//23 6//21 7//22
