solid 1
facet normal -1 -0 0
 outer loop
  vertex 0 2000 2000
  vertex 0 0 0
  vertex 0 0 2000
 endloop
endfacet
facet normal -1 0 0
 outer loop
  vertex 0 2000 0
  vertex 0 0 0
  vertex 0 2000 2000
 endloop
endfacet
facet normal 0 1 0
 outer loop
  vertex 2000 2000 2000
  vertex 0 2000 0
  vertex 0 2000 2000
 endloop
endfacet
facet normal 0 1 -0
 outer loop
  vertex 2000 2000 0
  vertex 0 2000 0
  vertex 2000 2000 2000
 endloop
endfacet
facet normal 0 -1 0
 outer loop
  vertex 0 0 2000
  vertex 2000 0 0
  vertex 2000 0 2000
 endloop
endfacet
facet normal 0 -1 0
 outer loop
  vertex 0 0 0
  vertex 2000 0 0
  vertex 0 0 2000
 endloop
endfacet
facet normal 0 0 1
 outer loop
  vertex 2000 2000 2000
  vertex 0 0 2000
  vertex 2000 0 2000
 endloop
endfacet
facet normal -0 0 1
 outer loop
  vertex 0 2000 2000
  vertex 0 0 2000
  vertex 2000 2000 2000
 endloop
endfacet
facet normal 1 0 0
 outer loop
  vertex 2000 2000 2000
  vertex 2000 0 0
  vertex 2000 2000 0
 endloop
endfacet
facet normal 1 -0 0
 outer loop
  vertex 2000 0 2000
  vertex 2000 0 0
  vertex 2000 2000 2000
 endloop
endfacet
facet normal 0 0 -1
 outer loop
  vertex 0 0 0
  vertex 0 2000 0
  vertex 2000 2000 0
 endloop
endfacet
facet normal 0 0 -1
 outer loop
  vertex 0 0 0
  vertex 2000 2000 0
  vertex 2000 0 0
 endloop
endfacet
endsolid 1
